<svg width="50" height="53" viewBox="0 0 50 53" fill="none" xmlns="http://www.w3.org/2000/svg">
<path d="M48.5144 23.9626L40.2727 32.2043L35.5691 27.4922L39.124 23.9626C39.4069 23.6321 39.3878 23.1398 39.0801 22.8321C38.7727 22.5248 38.2805 22.5057 37.95 22.7886L34.3871 26.3101L32.0391 23.9541L40.2727 15.7123C40.5955 15.3876 40.5955 14.8632 40.2727 14.5384C39.9479 14.2156 39.4235 14.2156 39.0988 14.5384L30.266 23.3715C30.1083 23.5276 30.0197 23.7406 30.0197 23.9626C30.0197 24.1845 30.1083 24.3971 30.266 24.5536L31.4481 25.7272L30.266 26.9097C28.8685 25.5109 26.6799 25.2882 25.0295 26.3768L24.3803 25.7272C23.6003 24.9492 22.5434 24.5122 21.4414 24.5118C20.9207 24.5118 20.404 24.6077 19.9178 24.7951L18.4943 23.3715L19.0853 22.7886C19.243 22.6321 19.3317 22.4195 19.3317 22.1976C19.3317 21.9756 19.243 21.7626 19.0853 21.6065L10.8188 13.3648C10.4924 13.0404 9.96477 13.0425 9.64079 13.3689C9.31641 13.6953 9.31844 14.2225 9.64486 14.5469L17.2955 22.1976L16.7045 22.7801L12.542 26.9011L9.60339 23.9541C9.44689 23.7963 9.23429 23.7077 9.01235 23.7077C8.7904 23.7077 8.5774 23.7963 8.4213 23.9541C8.09814 24.2788 8.09814 24.8032 8.4213 25.128L11.368 28.0751L10.1859 29.2487L9.07861 30.4726L1.42794 22.7886C1.27185 22.6309 1.05884 22.5423 0.836898 22.5423C0.614951 22.5423 0.402354 22.6309 0.245853 22.7886C-0.0769053 23.1134 -0.0769053 23.6378 0.245853 23.9626L8.48756 32.2043C8.64488 32.36 8.85747 32.447 9.07861 32.4458C9.30015 32.447 9.51274 32.36 9.67006 32.2043L10.8188 31.0303L11.9924 32.2043C10.3676 33.8299 10.3676 36.4644 11.9924 38.09L13.5578 39.6302C13.7139 39.7879 13.9269 39.8765 14.1488 39.8765C14.3708 39.8765 14.5834 39.7879 14.7399 39.6302C15.0626 39.3054 15.0626 38.781 14.7399 38.4562L13.1997 36.9164C12.7293 36.4477 12.4651 35.8111 12.4651 35.1473C12.4651 34.4831 12.7293 33.8465 13.1997 33.3783L13.7826 32.7953L19.6764 26.9011C20.6658 25.9625 22.217 25.9625 23.2064 26.9011L28.501 32.1958C28.7839 32.5262 28.7648 33.0185 28.4575 33.3262C28.1498 33.6335 27.6575 33.6526 27.3274 33.3697L23.4893 29.532C23.1609 29.2056 22.6296 29.2072 22.3031 29.5361C21.9767 29.8649 21.9784 30.3958 22.3072 30.7222L26.1449 34.5603C26.8587 35.2794 27.936 35.4965 28.8721 35.1095C29.8087 34.7225 30.4184 33.8083 30.416 32.7953C30.4152 32.1332 30.1518 31.4982 29.6831 31.0303L26.2535 27.6003C27.2096 27.167 28.3331 27.358 29.092 28.0832L36.1602 35.1514C36.6256 35.6205 36.8862 36.2554 36.8846 36.9164C36.8862 37.5774 36.6256 38.2119 36.1602 38.681L33.8041 41.0371L31.39 43.4431L29.6831 45.1581L24.9714 49.8698C24.6466 50.1926 24.1222 50.1926 23.7974 49.8698C23.4747 49.5454 23.4747 49.021 23.7974 48.6963L29.1339 43.3846C29.3713 43.1813 29.475 42.8618 29.4018 42.5578C29.3286 42.2537 29.0912 42.0163 28.7872 41.9431C28.4827 41.87 28.1636 41.9732 27.9599 42.211L22.6568 47.5056C22.3267 47.7885 21.8345 47.7694 21.5267 47.4621C21.2194 47.1544 21.2003 46.6621 21.4832 46.3317L26.7779 41.0371C26.9356 40.881 27.0242 40.668 27.0242 40.446C27.0242 40.2241 26.9356 40.0115 26.7779 39.855C26.4531 39.5322 25.9287 39.5322 25.6039 39.855L20.3007 45.1581C19.9764 45.4809 19.452 45.4809 19.1272 45.1581C18.9695 45.0016 18.8809 44.789 18.8809 44.5671C18.8809 44.3451 18.9695 44.1321 19.1272 43.976L24.4218 38.681C24.5795 38.5249 24.6681 38.3119 24.6681 38.09C24.6681 37.868 24.5795 37.6554 24.4218 37.4989C24.097 37.1761 23.5726 37.1761 23.2478 37.4989L17.9451 42.8021C17.6187 43.126 17.0911 43.1244 16.7671 42.798C16.4427 42.4716 16.4447 41.9439 16.7711 41.62L23.173 35.2262C23.4995 34.8998 23.4995 34.3705 23.173 34.0441C22.8466 33.7177 22.3174 33.7177 21.991 34.0441L15.5557 40.4627C14.5818 41.4379 14.5818 43.0175 15.5557 43.9927C15.9858 44.4317 16.565 44.6935 17.1789 44.7252C17.2532 45.9926 18.267 47.0028 19.5349 47.0727C19.6052 48.3438 20.6203 49.3584 21.891 49.4288C21.9149 50.0548 22.1735 50.6495 22.6153 51.0938C23.3657 51.8425 24.5072 52.0364 25.4624 51.5767L26.1449 52.2677C26.8461 52.9693 27.8965 53.1897 28.8209 52.8287C29.7449 52.4677 30.3676 51.5942 30.4075 50.6027C31.0347 50.5836 31.631 50.3243 32.0725 49.8783C32.505 49.4442 32.7627 48.8666 32.7968 48.2548C34.068 48.1849 35.0826 47.1699 35.1529 45.8987C36.1443 45.8593 37.0179 45.2362 37.3789 44.3122C37.7402 43.3878 37.5199 42.3378 36.8179 41.6366L36.2269 41.0537L37.4089 39.8716C38.187 39.0916 38.624 38.0347 38.6244 36.9327C38.6049 36.1087 38.341 35.3091 37.8667 34.6351L39.124 33.3783L39.715 33.9693C40.0398 34.2921 40.5642 34.2921 40.889 33.9693L49.6965 25.1361C50.0193 24.8118 50.0193 24.287 49.6965 23.9626C49.5404 23.8049 49.3274 23.7163 49.1055 23.7163C48.8835 23.7163 48.6709 23.8049 48.5144 23.9626ZM12.0176 29.8482L17.3207 24.5536L18.4943 25.7272L13.1997 31.0303L12.0176 29.8482ZM28.501 51.0438C28.1762 51.3665 27.6518 51.3665 27.3274 51.0438L26.7364 50.4527L27.9185 49.2788L28.501 49.8617C28.6587 50.0178 28.7473 50.2308 28.7473 50.4527C28.7473 50.6747 28.6587 50.8877 28.501 51.0438ZM30.857 48.6877C30.5323 49.0105 30.0079 49.0105 29.6831 48.6877L29.1339 48.0967L29.725 47.5056L30.3075 46.9227L30.8989 47.5056C31.0562 47.6621 31.1448 47.8747 31.1448 48.0967C31.1448 48.3186 31.0562 48.5316 30.8989 48.6877H30.857ZM33.2131 46.3317C32.8883 46.6544 32.3639 46.6544 32.0391 46.3317L31.4481 45.7406L32.622 44.5671L33.2131 45.1581C33.5359 45.4829 33.5359 46.0073 33.2131 46.3317ZM35.5691 43.976C35.4126 44.1333 35.2 44.2219 34.9781 44.2219C34.7562 44.2219 34.5431 44.1333 34.3871 43.976L33.8041 43.3846L34.9614 42.211L35.5525 42.8021C35.8797 43.122 35.8874 43.6468 35.5691 43.976ZM36.7427 33.3783L31.4481 28.0832L32.622 26.9097L37.9252 32.2043L36.7427 33.3783Z" fill="#FFBB01"/>
<path d="M15.8139 13.3201H34.129C34.5888 13.3201 34.9615 12.9473 34.9615 12.4876V0.832504C34.9615 0.372757 34.5888 0 34.129 0H15.8139C15.3542 0 14.9814 0.372757 14.9814 0.832504V12.4876C14.9814 12.9473 15.3542 13.3201 15.8139 13.3201ZM16.6465 9.99005C17.5659 9.99005 18.3115 10.7356 18.3115 11.6551H16.6465V9.99005ZM33.2965 11.6551H31.6315C31.6315 10.7356 32.377 9.99005 33.2965 9.99005V11.6551ZM33.2965 3.33002C32.377 3.33002 31.6315 2.5845 31.6315 1.66501H33.2965V3.33002ZM33.2965 4.99502V8.32504C31.4571 8.32504 29.9665 9.81607 29.9665 11.6551H19.9765C19.9765 9.81607 18.4854 8.32504 16.6465 8.32504V4.99502C18.4854 4.99502 19.9765 3.504 19.9765 1.66501H29.9665C29.9665 3.504 31.4571 4.99502 33.2965 4.99502ZM16.6465 1.66501H18.3115C18.3115 2.5845 17.5659 3.33002 16.6465 3.33002V1.66501Z" fill="#FFBB01"/>
<path d="M24.9713 9.99005C26.8102 9.99005 28.3013 8.49902 28.3013 6.66003C28.3013 4.82104 26.8102 3.33002 24.9713 3.33002C23.1319 3.33002 21.6412 4.82104 21.6412 6.66003C21.6412 8.49902 23.1319 9.99005 24.9713 9.99005ZM24.9713 4.99503C25.8907 4.99503 26.6363 5.74054 26.6363 6.66003C26.6363 7.57953 25.8907 8.32504 24.9713 8.32504C24.0518 8.32504 23.3062 7.57953 23.3062 6.66003C23.3062 5.74054 24.0518 4.99503 24.9713 4.99503Z" fill="#FFBB01"/>
<path d="M31.6313 6.66002C31.6313 7.11977 31.2586 7.49252 30.7988 7.49252C30.3391 7.49252 29.9663 7.11977 29.9663 6.66002C29.9663 6.20027 30.3391 5.82751 30.7988 5.82751C31.2586 5.82751 31.6313 6.20027 31.6313 6.66002Z" fill="#FFBB01"/>
<path d="M19.9763 6.66002C19.9763 7.11977 19.6035 7.49252 19.1438 7.49252C18.684 7.49252 18.3113 7.11977 18.3113 6.66002C18.3113 6.20027 18.684 5.82751 19.1438 5.82751C19.6035 5.82751 19.9763 6.20027 19.9763 6.66002Z" fill="#FFBB01"/>
<path d="M49.805 8.36978L46.475 3.37476C46.3202 3.14427 46.0612 3.00647 45.784 3.00647C45.5068 3.00647 45.2474 3.14427 45.0929 3.37476L41.7629 8.36978C41.6719 8.50514 41.6227 8.66449 41.6215 8.82749V12.1575C41.6215 12.6173 41.9942 12.99 42.454 12.99C42.9137 12.99 43.2865 12.6173 43.2865 12.1575V9.07708L45.784 5.33081L48.2815 9.07708V17.985C48.2815 18.4448 48.6543 18.8175 49.114 18.8175C49.5738 18.8175 49.9465 18.4448 49.9465 17.985V8.82749C49.9453 8.66449 49.8961 8.50514 49.805 8.36978Z" fill="#FFBB01"/>
<path d="M46.6166 11.655V6.66002C46.6166 6.20027 46.2438 5.82751 45.784 5.82751C45.3243 5.82751 44.9515 6.20027 44.9515 6.66002V11.655C44.9515 12.1148 45.3243 12.4875 45.784 12.4875C46.2438 12.4875 46.6166 12.1148 46.6166 11.655Z" fill="#FFBB01"/>
<path d="M0.828736 10.4926H1.66124V20.4826C1.66124 20.9424 2.034 21.3151 2.49374 21.3151C2.95349 21.3151 3.32625 20.9424 3.32625 20.4826V9.66006C3.32625 9.20031 2.95349 8.82755 2.49374 8.82755H2.44375L4.99126 5.26462L7.53877 8.82755H7.48877C7.02902 8.82755 6.65626 9.20031 6.65626 9.66006V11.3251C6.65626 11.7848 7.02902 12.1576 7.48877 12.1576C7.94852 12.1576 8.32127 11.7848 8.32127 11.3251V10.4926H9.15378C9.46475 10.4909 9.74889 10.3165 9.89075 10.0397C10.0326 9.76331 10.0082 9.43039 9.82815 9.17714L5.66563 3.34961C5.50873 3.13336 5.25832 3.00531 4.99126 3.00531C4.72419 3.00531 4.47338 3.13336 4.31688 3.34961L0.154359 9.17714C-0.0261248 9.43039 -0.0501081 9.76331 0.0917591 10.0397C0.233626 10.3165 0.517767 10.4909 0.828736 10.4926Z" fill="#FFBB01"/>
<path d="M4.99121 14.6551V17.1526C4.99121 17.6123 5.36397 17.9851 5.82372 17.9851C6.28346 17.9851 6.65622 17.6123 6.65622 17.1526V14.6551C6.65622 14.1953 6.28346 13.8226 5.82372 13.8226C5.36397 13.8226 4.99121 14.1953 4.99121 14.6551Z" fill="#FFBB01"/>
</svg>
